<svg width="14" height="12" viewBox="0 0 14 12" fill="none" xmlns="http://www.w3.org/2000/svg">
<path d="M13.9196 5.93731C13.9318 5.9498 13.94 5.96229 13.9441 5.97478C14.075 6.34525 13.9728 6.63248 13.6905 6.9197C12.1849 8.43074 10.6957 9.95843 9.20247 11.4778C8.98564 11.6984 8.69926 11.7442 8.43334 11.611C8.18377 11.4861 8.02831 11.2114 8.08968 10.9242C8.12241 10.7785 8.20423 10.6244 8.30651 10.5162C9.39476 9.39647 10.4912 8.28504 11.5876 7.17362C11.5917 7.16946 11.5999 7.16113 11.604 7.15697C11.6694 7.09037 11.6244 6.97797 11.5303 6.97381C11.5222 6.97381 11.5099 6.97381 11.5017 6.97381C5.37315 6.97381 6.9237 6.9863 0.791062 6.9863C0.566049 6.9863 0.3574 6.95716 0.193754 6.78233C0.00556123 6.58252 -0.0476237 6.34525 0.0464728 6.09133C0.140569 5.84157 0.328762 5.68756 0.598778 5.66258C0.680601 5.65425 0.762424 5.65842 0.844247 5.65842C6.95234 5.65842 5.38133 5.64593 11.4935 5.64593C11.5058 5.64593 11.5181 5.64593 11.5262 5.64593C11.6203 5.64593 11.6694 5.53354 11.5999 5.46277C10.528 4.368 9.45203 3.27322 8.38015 2.18261C8.06104 1.85793 7.99149 1.5374 8.17559 1.24186C8.3556 0.954633 8.63789 0.875543 9.05519 1.00458C9.07156 1.00875 9.08792 1.01707 9.10019 1.02956L13.9196 5.93731Z" fill="#233638"/>
</svg>
