<svg width="14" height="12" viewBox="0 0 14 12" fill="none" xmlns="http://www.w3.org/2000/svg">
<path d="M0.0804362 6.69259C0.0681624 6.6801 0.0599799 6.66761 0.0558886 6.65512C-0.0750375 6.28462 0.0272479 5.99738 0.309557 5.71013C1.81521 4.19899 3.30449 2.67119 4.79786 1.15172C5.01471 0.931089 5.30111 0.885297 5.56705 1.01851C5.81663 1.1434 5.97211 1.41815 5.91074 1.70539C5.878 1.8511 5.79617 2.00513 5.69389 2.11336C4.60557 3.23319 3.50906 4.34469 2.41256 5.4562C2.40846 5.46036 2.40028 5.46868 2.39619 5.47285C2.33073 5.53945 2.37573 5.65185 2.46984 5.65602C2.47802 5.65602 2.49029 5.65602 2.49848 5.65602C8.62745 5.65602 7.07679 5.64353 13.2099 5.64353C13.4349 5.64353 13.6436 5.67267 13.8072 5.84751C13.9954 6.04733 14.0486 6.28462 13.9545 6.53856C13.8604 6.78833 13.6722 6.94236 13.4022 6.96734C13.3203 6.97567 13.2385 6.9715 13.1567 6.9715C7.04815 6.9715 8.61927 6.98399 2.50666 6.98399C2.49439 6.98399 2.48211 6.98399 2.47393 6.98399C2.37982 6.98399 2.33073 7.09639 2.40028 7.16716C3.47224 8.26201 4.54829 9.35686 5.62024 10.4476C5.93937 10.7723 6.00893 11.0928 5.82481 11.3884C5.64479 11.6756 5.36248 11.7547 4.94516 11.6257C4.92879 11.6215 4.91242 11.6132 4.90015 11.6007L0.0804362 6.69259Z" fill="#416267" fill-opacity="0.6"/>
</svg>
